erDiagram
    NetworkInformation {
        string network PK
        decimal maxSupply
        decimal totalSupply
        decimal circulatingSupply
        decimal lockedSupply
        decimal treasurySupply
        decimal reservesSupply
        decimal liveStake
        decimal activeStake
    }

    Epochs {
        int epoch PK
        int startTime
        int endTime
        int firstBlockTime
        int lastBlockTime
        int blockCount
        int txCount
        string output
        decimal fees
        decimal activeStake
    }

    Blocks {
        string hash PK
        string time
        int height
        string slotLeader
        int epochNumber FK
        int epochSlot
        int size
        int txCount
        decimal fees
    }

    Pools {
        string poolId PK
        string vrfKeyHash
        int blocksMinted
        int blocksEpoch
        decimal liveStake
        decimal liveSize
        decimal liveSaturation
        int liveDelegators
        decimal activeStake
        decimal activeSize
        decimal pledge
        decimal margin
        decimal fixedCost
        string rewardAccount
    }

    Dreps {
        string drepId PK
        string hex
        decimal amount
        boolean hasScript
        int lastActiveEpoch
        boolean retired
        boolean expired
    }

    Addresses {
        string address PK
        string stakeAddress
        string type
        boolean isScript
        decimal totalLovelace
        boolean hasAssets
        boolean hasUTxOs
    }

    Accounts {
        string stakeAddress PK
        boolean active
        int activeEpoch
        decimal controlledAmount
        decimal rewardsSum
        decimal withdrawalsSum
        decimal reservesSum
        decimal treasurySum
        decimal withdrawableAmount
        string poolId FK
        string drepId FK
        boolean hasAddresses
    }

    AddressAssets {
        string address FK
        string unit
        decimal quantity
        string policyId
        string assetNameHex
        string assetName
        string fingerprint
    }

    AddressUTxOs {
        string address FK
        string hash
        int index
        string blockHash
        string dataHash
        string inlineDatum
        string referenceScriptHash
        boolean hasAssets
    }

    UTxOAssets {
        string utxo FK
        string unit
        decimal quantity
        string policyId
        string assetNameHex
        string assetName
        string fingerprint
    }

    Transactions {
        string hash PK
        string blockHash
        int blockHeight
        long blockTime
        long slot
        int txIndex
        decimal fee
        decimal deposit
        int size
        boolean hasMetadata
        boolean hasInputs
        boolean hasOutputs
    }

    TransactionMetadata {
        int id PK
        string tx FK
        string label
        string payload
    }

    TransactionInputs {
        string tx FK
        int inputIndex
        string address FK
        string dataHash
        string inlineDatum
        string referenceScriptHash
        boolean isCollateral
        boolean isReference
        boolean hasAddresses
        boolean hasAssets
    }

    TransactionOutputs {
        string tx FK
        int outputIndex
        string address FK
        string dataHash
        string inlineDatum
        string referenceScriptHash
        boolean hasAddresses
        boolean hasAssets
    }

    TransactionInputAssets {
        string input FK
        string unit
        decimal quantity
        string policyId
        string assetNameHex
        string assetName
        string fingerprint
    }

    TransactionOutputAssets {
        string output FK
        string unit
        decimal quantity
        string policyId
        string assetNameHex
        string assetName
        string fingerprint
    }

    Epochs ||--o{ Blocks : has
    Addresses ||--o{ AddressAssets : contains
    Addresses ||--o{ AddressUTxOs : contains
    AddressUTxOs ||--o{ UTxOAssets : contains
    Accounts ||--o{ Addresses : controls
    Accounts }o--|| Pools : delegatesTo
    Accounts }o--|| Dreps : votesWith
    Transactions ||--o{ TransactionMetadata : has
    Transactions ||--o{ TransactionInputs : has
    Transactions ||--o{ TransactionOutputs : has
    TransactionInputs ||--o{ TransactionInputAssets : contains
    TransactionOutputs ||--o{ TransactionOutputAssets : contains
    Addresses ||--o{ TransactionInputs : references
    Addresses ||--o{ TransactionOutputs : references
